<svg xmlns="http://www.w3.org/2000/svg" xmlns:svg="http://www.w3.org/2000/svg" xmlns:xlink="http://www.w3.org/1999/xlink" version="1.0" height="1259.9999999999998pt" width="1370.0000000000005pt" viewBox="415.0000000000001 -172.99999999999983 1378.0000000000005 1265.9999999999998" ><defs><style type="text/css">
            @font-face {
                font-family: 'lt_regular';
                src: url('https://app.creately.com/diagram/assets/fonts/lato/lt-regular-webfont.woff2') format('woff2'),
                    url('https://app.creately.com/diagram/assets/fonts/lato/lt-regular-webfont.woff') format('woff');
                font-weight: normal;
                font-style: normal;
            }
            @font-face {
                font-family: 'noto_regular';
                src: url('https://app.creately.com/diagram/assets/fonts/noto/noto-regular.woff') format('woff'),
                     url('https://app.creately.com/diagram/assets/fonts/noto/noto-regular.woff2') format('woff2');
                font-weight: normal;
                font-style: normal;
            }
        p {
            margin: 0;
        }
        </style></defs><defs><style>
            span{ display: inline-block; }
        </style></defs><g id="abm3rtpchHC"><g transform="translate(890 70)"><rect x="0" y="0" width="120.00000000000003" height="60.000000000000014" fill="rgb(226,78,51)" stroke="#e24e33" stroke-width="2" stroke-linecap="round" stroke-linejoin="round" stroke-dasharray="0 0"/></g><g transform="translate(915.5, 89) rotate(0, 34.5, 11)" width="69" height="22"><text text-decoration="none" x="0" fill="rgb(255, 255, 255)" font-weight="bold" font-size="12pt" font-family="lt_regular"  y="17">Customer</text><text text-decoration="none" x="69" fill="#4b4b4b" font-size="10pt" font-family="noto_regular"  y="17"></text></g></g><g id="iVMeMAyMrzS"><g transform="translate(840.0000000000001 -59.999999999999886)"><ellipse cx="64.99999999999999" cy="20.000000000000053" rx="64.99999999999999" ry="20.000000000000053" fill="rgb(166,179,178)" stroke="#a6b3b2" stroke-width="2" stroke-linecap="round" stroke-linejoin="round" stroke-dasharray="0 0"/></g><g transform="translate(888.0000000000001, -49.99999999999983) rotate(0, 17, 10)" width="34" height="20"><text text-decoration="none" x="0" fill="rgb(255, 255, 255)" font-weight="bold" font-size="10pt" font-family="lt_regular"  y="15">Name</text><text text-decoration="none" x="34" fill="#4b4b4b" font-size="10pt" font-family="noto_regular"  y="15"></text></g></g><g id="FCpRskgWtHE"><g transform="translate(780.0000000000001 -169.99999999999983)"><ellipse cx="64.99999999999999" cy="20.000000000000053" rx="64.99999999999999" ry="20.000000000000053" fill="rgb(233,228,232)" stroke="#e9e4e8" stroke-width="2" stroke-linecap="round" stroke-linejoin="round" stroke-dasharray="0 0"/></g><g transform="translate(814.5000000000001, -159.99999999999977) rotate(0, 30.5, 10)" width="61" height="20"><text text-decoration="none" x="0.5" fill="rgb(0, 0, 0)" font-size="10pt" font-family="lt_regular"  y="15">FirstName</text><text text-decoration="none" x="60.5" fill="#4b4b4b" font-size="10pt" font-family="noto_regular"  y="15"></text></g></g><g id="lqVcv6pQZsJ"><g transform="translate(919.9999999999999 -169.99999999999983)"><ellipse cx="64.99999999999999" cy="20.000000000000053" rx="64.99999999999999" ry="20.000000000000053" fill="rgb(233,228,232)" stroke="#e9e4e8" stroke-width="2" stroke-linecap="round" stroke-linejoin="round" stroke-dasharray="0 0"/></g><g transform="translate(955.9999999999998, -159.99999999999977) rotate(0, 29, 10)" width="58" height="20"><text text-decoration="none" x="0" fill="rgb(0, 0, 0)" font-size="10pt" font-family="lt_regular"  y="15">LastName</text><text text-decoration="none" x="58" fill="#4b4b4b" font-size="10pt" font-family="noto_regular"  y="15"></text></g></g><g id="zt1ZOle8Oki"><g transform="translate(1050 60.00000000000006)"><ellipse cx="64.99999999999999" cy="20.000000000000057" rx="64.99999999999999" ry="20.000000000000057" fill="rgb(166,179,178)" stroke="#a6b3b2" stroke-width="2" stroke-linecap="round" stroke-linejoin="round" stroke-dasharray="0 0"/></g><g transform="translate(1094.5, 70.00000000000011) rotate(0, 20.5, 10)" width="41" height="20"><text text-decoration="none" x="0" fill="rgb(255, 255, 255)" font-weight="bold" font-size="10pt" font-family="lt_regular"  y="15">CustID</text><text text-decoration="none" x="41" fill="#4b4b4b" font-size="10pt" font-family="noto_regular"  y="15"></text></g></g><g id="aUtXkfEHMcN"><g><path d="M 950,70 L 950,35.000000000000114 Q 950,25.00000000000011 940,25.00000000000006 L 928,25 L 915.0000000000001,25.000000000000064 Q 905.0000000000001,25.00000000000011 905.0000000000001,15.00000000000011 L 905,-20" fill="none" stroke="#7E7E7E" stroke-width="2" stroke-linecap="round" stroke-linejoin="round"/></g></g><g id="na2lAubfmh5"><g><path d="M 905,-60 L 905.0000000000001,-84.9999999999998 Q 905.0000000000001,-94.9999999999998 895.0000000000001,-94.99999999999987 L 875,-95 L 855.0000000000001,-94.99999999999987 Q 845.0000000000001,-94.9999999999998 845.0000000000001,-104.9999999999998 L 845,-130" fill="none" stroke="#7E7E7E" stroke-width="2" stroke-linecap="round" stroke-linejoin="round"/></g></g><g id="DmmTUj9XL44"><g><path d="M 985,-130 L 984.9999999999999,-104.9999999999998 Q 984.9999999999998,-94.9999999999998 974.9999999999998,-94.99999999999986 L 945,-95 L 915.0000000000001,-94.99999999999986 Q 905.0000000000001,-94.9999999999998 905.0000000000001,-84.9999999999998 L 905,-60" fill="none" stroke="#7E7E7E" stroke-width="2" stroke-linecap="round" stroke-linejoin="round"/></g></g><g id="pi2qcOuayW3"><g transform="translate(1020 0)"><ellipse cx="64.99999999999999" cy="20.00000000000006" rx="64.99999999999999" ry="20.00000000000006" fill="rgb(166,179,178)" stroke="#a6b3b2" stroke-width="2" stroke-linecap="round" stroke-linejoin="round" stroke-dasharray="0 0"/></g><g transform="translate(1061.5, 10.00000000000006) rotate(0, 23.5, 10)" width="47" height="20"><text text-decoration="none" x="0" fill="rgb(255, 255, 255)" font-weight="bold" font-size="10pt" font-family="lt_regular"  y="15">Address</text><text text-decoration="none" x="47" fill="#4b4b4b" font-size="10pt" font-family="noto_regular"  y="15"></text></g></g><g id="J5pzHmHCDbS"><g transform="translate(1040.0000000000002 -120)"><ellipse cx="64.99999999999999" cy="20.000000000000053" rx="64.99999999999999" ry="20.000000000000053" fill="rgb(233,228,232)" stroke="#e9e4e8" stroke-width="2" stroke-linecap="round" stroke-linejoin="round" stroke-dasharray="0 0"/></g><g transform="translate(1078.0000000000002, -109.99999999999994) rotate(0, 27, 10)" width="54" height="20"><text text-decoration="none" x="0" fill="rgb(0, 0, 0)" font-size="10pt" font-family="lt_regular"  y="15">Address1</text><text text-decoration="none" x="55" fill="#4b4b4b" font-size="10pt" font-family="noto_regular"  y="15"></text></g></g><g id="IMuxyMTeEyH"><g transform="translate(1180.0000000000002 -120)"><ellipse cx="64.99999999999999" cy="20.000000000000053" rx="64.99999999999999" ry="20.000000000000053" fill="rgb(233,228,232)" stroke="#e9e4e8" stroke-width="2" stroke-linecap="round" stroke-linejoin="round" stroke-dasharray="0 0"/></g><g transform="translate(1233.0000000000002, -109.99999999999994) rotate(0, 12, 10)" width="24" height="20"><text text-decoration="none" x="0" fill="rgb(0, 0, 0)" font-size="10pt" font-family="lt_regular"  y="15">City</text><text text-decoration="none" x="24" fill="#4b4b4b" font-size="10pt" font-family="noto_regular"  y="15"></text></g></g><g id="Lqy9mwZUIyj"><g transform="translate(1260.0000000000002 -70.00000000000006)"><ellipse cx="64.99999999999999" cy="20.000000000000053" rx="64.99999999999999" ry="20.000000000000053" fill="rgb(233,228,232)" stroke="#e9e4e8" stroke-width="2" stroke-linecap="round" stroke-linejoin="round" stroke-dasharray="0 0"/></g><g transform="translate(1301.5000000000002, -60) rotate(0, 23.5, 10)" width="47" height="20"><text text-decoration="none" x="1" fill="rgb(0, 0, 0)" font-size="10pt" font-family="lt_regular"  y="15">Zipcode</text><text text-decoration="none" x="46" fill="#4b4b4b" font-size="10pt" font-family="noto_regular"  y="15"></text></g></g><g id="dh9msMhHI8r"><g transform="translate(1250 0)"><ellipse cx="64.99999999999999" cy="20.00000000000006" rx="64.99999999999999" ry="20.00000000000006" fill="rgb(233,228,232)" stroke="#e9e4e8" stroke-width="2" stroke-linecap="round" stroke-linejoin="round" stroke-dasharray="0 0"/></g><g transform="translate(1300, 10.00000000000006) rotate(0, 15, 10)" width="30" height="20"><text text-decoration="none" x="0" fill="rgb(0, 0, 0)" font-size="10pt" font-family="lt_regular"  y="15">State</text><text text-decoration="none" x="30" fill="#4b4b4b" font-size="10pt" font-family="noto_regular"  y="15"></text></g></g><g id="WEatFmvshtE"><g><path d="M 1010,100 L 1020,100 Q 1030,100 1030,90 L 1030,90 Q 1030,80.00000000000011 1040,80.00000000000006 L 1050,80" fill="none" stroke="#7E7E7E" stroke-width="2" stroke-linecap="round" stroke-linejoin="round"/></g></g><g id="JtIMNrQgLVF"><g><path d="M 1010,100 Q 1015,95 1015,90 L 1015,60 L 1015,30.000000000000057 Q 1015,25.000000000000057 1020,20" fill="none" stroke="#7E7E7E" stroke-width="2" stroke-linecap="round" stroke-linejoin="round"/></g></g><g id="740f5Qxr9o6"><g><path d="M 1085,0 L 1085,-29.999999999999943 Q 1085,-39.99999999999994 1095,-40 L 1095,-40 L 1095.0000000000002,-40 Q 1105.0000000000002,-39.99999999999994 1105.0000000000002,-49.99999999999994 L 1105,-80" fill="none" stroke="#7E7E7E" stroke-width="2" stroke-linecap="round" stroke-linejoin="round"/></g></g><g id="cWkIatNLFn0"><g><path d="M 1085,0 L 1085,-29.999999999999943 Q 1085,-39.99999999999994 1095,-39.99999999999995 L 1165,-40 L 1235.0000000000002,-39.99999999999995 Q 1245.0000000000002,-39.99999999999994 1245.0000000000002,-49.99999999999994 L 1245,-80" fill="none" stroke="#7E7E7E" stroke-width="2" stroke-linecap="round" stroke-linejoin="round"/></g></g><g id="WJVydCx9Qbi"><g><path d="M 1085,0 L 1085,-4.999999999999975 Q 1085,-14.999999999999975 1095,-14.999999999999977 L 1205,-15 L 1315.0000000000002,-14.999999999999977 Q 1325.0000000000002,-14.999999999999975 1325,-24.999999999999975 L 1325,-30" fill="none" stroke="#7E7E7E" stroke-width="2" stroke-linecap="round" stroke-linejoin="round"/></g></g><g id="OABfFWUM8Yn"><g><path d="M 1250,20 L 1240,20.00000000000003 Q 1230,20.00000000000006 1230,10.00000000000006 L 1230,0 L 1230,-10 Q 1230,-20 1220,-20 L 1158,-20 L 1095,-20 Q 1085,-20 1085,-18.999999999999975 L 1085,0" fill="none" stroke="#7E7E7E" stroke-width="2" stroke-linecap="round" stroke-linejoin="round"/></g></g><g id="0gz1Ajmou5b"><g transform="translate(880 220.00000000000003)"><path d="M 70.00000000000007,0 L 0,39.999999999999986 L 70.00000000000007,79.99999999999997 L 140.00000000000014,39.999999999999986 L 70.00000000000007,0 Z" fill="rgb(39,59,79)" stroke="#273b4f" stroke-width="2" stroke-linecap="round" stroke-linejoin="round" stroke-dasharray="0 0"/></g><g transform="translate(918.5, 249) rotate(0, 31.5, 11)" width="63" height="22"><text text-decoration="none" x="0" fill="rgb(255, 255, 255)" font-weight="bold" font-size="12pt" font-family="lt_regular"  y="17">ORDERS</text><text text-decoration="none" x="63" fill="#4b4b4b" font-size="10pt" font-family="noto_regular"  y="17"></text></g></g><g id="BOvVxcAorth"><g transform="translate(889.9999999999999 380)"><rect x="0" y="0" width="119.99999999999997" height="59.999999999999986" fill="rgb(226,78,51)" stroke="#e24e33" stroke-width="2" stroke-linecap="round" stroke-linejoin="round" stroke-dasharray="0 0"/></g><g transform="translate(918.4999999999999, 399) rotate(0, 31.5, 11)" width="63" height="22"><text text-decoration="none" x="0" fill="rgb(255, 255, 255)" font-weight="bold" font-size="12pt" font-family="lt_regular"  y="17">ORDERS</text><text text-decoration="none" x="63" fill="#4b4b4b" font-size="10pt" font-family="noto_regular"  y="17"></text></g></g><g id="aPkcmNLTRZJ"><g><path d="M 950,300 L 950,340 Q 949.9999999999999,349.9999999999999 949.9999999999999,350 L 950,380" fill="none" stroke="#7E7E7E" stroke-width="2" stroke-linecap="round" stroke-linejoin="round"/></g></g><g id="CstAI45RpMv"><g transform="translate(630 120)"><path d="M 70.00000000000007,0 L 0,39.999999999999986 L 70.00000000000007,79.99999999999997 L 140.00000000000014,39.999999999999986 L 70.00000000000007,0 Z" fill="rgb(39,59,79)" stroke="#273b4f" stroke-width="2" stroke-linecap="round" stroke-linejoin="round" stroke-dasharray="0 0"/></g><g transform="translate(647.5, 149) rotate(0, 52.5, 11)" width="105" height="22"><text text-decoration="none" x="5.5" fill="rgb(255, 255, 255)" font-weight="bold" font-size="12pt" font-family="lt_regular"  y="39">CustDealJoin</text><text text-decoration="none" x="99.5" fill="#4b4b4b" font-size="10pt" font-family="noto_regular"  y="39"></text></g></g><g id="wyZjoWS78te"><g><path d="M 890,100 L 710,100 Q 700,100 700,110 L 700,120" fill="none" stroke="#7E7E7E" stroke-width="2" stroke-linecap="round" stroke-linejoin="round"/><path d="M 890,100 L 881.304347826087,94.25 L 881.304347826087,105.75 Z" fill="rgb(126,126,126)" stroke="#7E7E7E" stroke-width="2" stroke-linecap="round" stroke-linejoin="round"/></g></g><g id="CFeVtE5ygAK"><g transform="translate(550.0000000000002 39.999999999999915)"><ellipse cx="64.99999999999999" cy="20.000000000000057" rx="64.99999999999999" ry="20.000000000000057" fill="rgb(166,179,178)" stroke="#a6b3b2" stroke-width="2" stroke-linecap="round" stroke-linejoin="round" stroke-dasharray="0 0"/></g><g transform="translate(587.5000000000002, 49.99999999999997) rotate(0, 27.5, 10)" width="55" height="20"><text text-decoration="none" x="14.5" fill="rgb(255, 255, 255)" font-weight="bold" font-size="10pt" font-family="lt_regular"  y="14">Free&#160;</text><text text-decoration="none" x="14" fill="rgb(255, 255, 255)" font-weight="bold" font-size="10pt" font-family="lt_regular"  y="33">Item</text><text text-decoration="none" x="41" fill="#4b4b4b" font-size="10pt" font-family="noto_regular"  y="33"></text></g></g><g id="YWnHtlLulXh"><g transform="translate(420.0000000000001 99.99999999999994)"><ellipse cx="64.99999999999999" cy="20.000000000000057" rx="64.99999999999999" ry="20.000000000000057" fill="rgb(166,179,178)" stroke="#a6b3b2" stroke-width="2" stroke-linecap="round" stroke-linejoin="round" stroke-dasharray="0 0"/></g><g transform="translate(464.5000000000001, 110) rotate(0, 20.5, 10)" width="41" height="20"><text text-decoration="none" x="0" fill="rgb(255, 255, 255)" font-weight="bold" font-size="10pt" font-family="lt_regular"  y="15">CustID</text><text text-decoration="none" x="41" fill="#4b4b4b" font-size="10pt" font-family="noto_regular"  y="15"></text></g></g><g id="c0uo0eXjJiU"><g transform="translate(420.0000000000001 169.99999999999983)"><ellipse cx="64.99999999999999" cy="20.000000000000057" rx="64.99999999999999" ry="20.000000000000057" fill="rgb(166,179,178)" stroke="#a6b3b2" stroke-width="2" stroke-linecap="round" stroke-linejoin="round" stroke-dasharray="0 0"/></g><g transform="translate(464.5000000000001, 179.9999999999999) rotate(0, 20.5, 10)" width="41" height="20"><text text-decoration="none" x="0.5" fill="rgb(255, 255, 255)" font-weight="bold" font-size="10pt" font-family="lt_regular"  y="15">DealID</text><text text-decoration="none" x="40.5" fill="#4b4b4b" font-size="10pt" font-family="noto_regular"  y="15"></text></g></g><g id="K2Gy0ZJEikG"><g transform="translate(550.0000000000002 240.0000000000001)"><ellipse cx="64.99999999999999" cy="20.000000000000057" rx="64.99999999999999" ry="20.000000000000057" fill="rgb(166,179,178)" stroke="#a6b3b2" stroke-width="2" stroke-linecap="round" stroke-linejoin="round" stroke-dasharray="0 0"/></g><g transform="translate(581.5000000000002, 250.00000000000017) rotate(0, 33.5, 10)" width="67" height="20"><text text-decoration="none" x="0" fill="rgb(255, 255, 255)" font-weight="bold" font-size="10pt" font-family="lt_regular"  y="15">CustDealID</text><text text-decoration="none" x="67" fill="#4b4b4b" font-size="10pt" font-family="noto_regular"  y="15"></text></g></g><g id="9FsDKs6FuIu"><g transform="translate(750.0000000000002 310.00000000000006)"><ellipse cx="64.99999999999999" cy="20.000000000000057" rx="64.99999999999999" ry="20.000000000000057" fill="rgb(166,179,178)" stroke="#a6b3b2" stroke-width="2" stroke-linecap="round" stroke-linejoin="round" stroke-dasharray="0 0"/></g><g transform="translate(787.5000000000002, 320.0000000000001) rotate(0, 27.5, 10)" width="55" height="20"><text text-decoration="none" x="14.5" fill="rgb(255, 255, 255)" font-weight="bold" font-size="10pt" font-family="lt_regular"  y="14">Free&#160;</text><text text-decoration="none" x="14" fill="rgb(255, 255, 255)" font-weight="bold" font-size="10pt" font-family="lt_regular"  y="33">Item</text><text text-decoration="none" x="41" fill="#4b4b4b" font-size="10pt" font-family="noto_regular"  y="33"></text></g></g><g id="USvf1Q6SBDq"><g transform="translate(590.0000000000001 360.0000000000001)"><ellipse cx="64.99999999999999" cy="20.000000000000057" rx="64.99999999999999" ry="20.000000000000057" fill="rgb(166,179,178)" stroke="#a6b3b2" stroke-width="2" stroke-linecap="round" stroke-linejoin="round" stroke-dasharray="0 0"/></g><g transform="translate(634.5000000000001, 370.00000000000017) rotate(0, 20.5, 10)" width="41" height="20"><text text-decoration="none" x="0" fill="rgb(255, 255, 255)" font-weight="bold" font-size="10pt" font-family="lt_regular"  y="15">CustID</text><text text-decoration="none" x="41" fill="#4b4b4b" font-size="10pt" font-family="noto_regular"  y="15"></text></g></g><g id="pRfXPjIOIno"><g transform="translate(590.0000000000005 419.9999999999998)"><ellipse cx="64.99999999999999" cy="20.000000000000057" rx="64.99999999999999" ry="20.000000000000057" fill="rgb(166,179,178)" stroke="#a6b3b2" stroke-width="2" stroke-linecap="round" stroke-linejoin="round" stroke-dasharray="0 0"/></g><g transform="translate(634.5000000000005, 429.99999999999983) rotate(0, 20.5, 10)" width="41" height="20"><text text-decoration="none" x="0.5" fill="rgb(255, 255, 255)" font-weight="bold" font-size="10pt" font-family="lt_regular"  y="15">DealID</text><text text-decoration="none" x="40.5" fill="#4b4b4b" font-size="10pt" font-family="noto_regular"  y="15"></text></g></g><g id="8jShqyQ4iEI"><g transform="translate(750.0000000000002 469.99999999999994)"><ellipse cx="64.99999999999999" cy="20.000000000000057" rx="64.99999999999999" ry="20.000000000000057" fill="rgb(166,179,178)" stroke="#a6b3b2" stroke-width="2" stroke-linecap="round" stroke-linejoin="round" stroke-dasharray="0 0"/></g><g transform="translate(781.5000000000002, 480) rotate(0, 33.5, 10)" width="67" height="20"><text text-decoration="none" x="0" fill="rgb(255, 255, 255)" font-weight="bold" font-size="10pt" font-family="lt_regular"  y="15">CustDealID</text><text text-decoration="none" x="67" fill="#4b4b4b" font-size="10pt" font-family="noto_regular"  y="15"></text></g></g><g id="HadHxX4x23q"><g><path d="M 615,80 L 615.0000000000002,150 Q 615.0000000000002,160 625.0000000000002,160 L 630,160" fill="none" stroke="#7E7E7E" stroke-width="2" stroke-linecap="round" stroke-linejoin="round"/></g></g><g id="ab9OsdDN0Dr"><g><path d="M 550,120 L 580,120 Q 590,120 590,130 L 590,140 L 590,150 Q 590,160 600,160 L 630,160" fill="none" stroke="#7E7E7E" stroke-width="2" stroke-linecap="round" stroke-linejoin="round"/></g></g><g id="CNHZIwGfszy"><g><path d="M 550,190 L 580,189.99999999999991 Q 590,189.9999999999999 590,179.9999999999999 L 590,175 L 590,170 Q 590,160 600,160 L 630,160" fill="none" stroke="#7E7E7E" stroke-width="2" stroke-linecap="round" stroke-linejoin="round"/></g></g><g id="r9r4ImA4VJx"><g><path d="M 615,240 L 615.0000000000002,170 Q 615.0000000000002,160 625.0000000000002,160 L 630,160" fill="none" stroke="#7E7E7E" stroke-width="2" stroke-linecap="round" stroke-linejoin="round"/></g></g><g id="tESDIhZpvH9"><g transform="translate(1110 360.0000000000001)"><path d="M 80.00000000000011,0 L 0,45 L 80.00000000000011,90 L 160.00000000000023,45 L 80.00000000000011,0 Z" fill="rgb(39,59,79)" stroke="#273b4f" stroke-width="2" stroke-linecap="round" stroke-linejoin="round" stroke-dasharray="0 0"/></g><g transform="translate(1135, 394.0000000000001) rotate(0, 55, 11)" width="110" height="22"><text text-decoration="none" x="1" fill="rgb(255, 255, 255)" font-weight="bold" font-size="12pt" font-family="lt_regular"  y="17">DELIVERED&#160;</text><text text-decoration="none" x="89" fill="rgb(255, 255, 255)" font-weight="bold" font-size="12pt" font-family="lt_regular"  y="17">BY</text><text text-decoration="none" x="109" fill="#4b4b4b" font-size="10pt" font-family="noto_regular"  y="17"></text></g></g><g id="ft6RybLPz2e"><g><path d="M 1010,410 L 1050,410 Q 1052,410 1060,408 Q 1067,405.0000000000001 1070,405.0000000000001 L 1110,405" fill="none" stroke="#7E7E7E" stroke-width="2" stroke-linecap="round" stroke-linejoin="round"/><path d="M 1110,405 L 1101.304347826087,399.25 L 1101.304347826087,410.75 Z" fill="rgb(126,126,126)" stroke="#7E7E7E" stroke-width="2" stroke-linecap="round" stroke-linejoin="round"/></g></g><g id="IJVEHe3Sfmb"><g><path d="M 950,220 L 950,130" fill="none" stroke="#7E7E7E" stroke-width="2" stroke-linecap="round" stroke-linejoin="round"/><path d="M 950,220 L 955.75,211.30434782608697 L 944.25,211.30434782608697 Z" fill="rgb(126,126,126)" stroke="#7E7E7E" stroke-width="2" stroke-linecap="round" stroke-linejoin="round"/><path d="M 950,130 L 944.25,138.69565217391303 L 955.75,138.69565217391303 Z" fill="rgb(126,126,126)" stroke="#7E7E7E" stroke-width="2" stroke-linecap="round" stroke-linejoin="round"/></g></g><g id="4rUQfzW1Bqy"><g transform="translate(1440 379.99999999999994)"><rect x="0" y="0" width="119.99999999999997" height="59.999999999999986" fill="rgb(226,78,51)" stroke="#e24e33" stroke-width="2" stroke-linecap="round" stroke-linejoin="round" stroke-dasharray="0 0"/></g><g transform="translate(1457, 398.99999999999994) rotate(0, 43, 11)" width="86" height="22"><text text-decoration="none" x="0.5" fill="rgb(255, 255, 255)" font-weight="bold" font-size="12pt" font-family="lt_regular"  y="17">DeliveryBoy</text><text text-decoration="none" x="85.5" fill="#4b4b4b" font-size="10pt" font-family="noto_regular"  y="17"></text></g></g><g id="T0bBMOzN1so"><g><path d="M 1270,405 L 1345,405.0000000000001 Q 1348,405.0000000000001 1355,408 Q 1363,409.99999999999994 1365,409.99999999999994 L 1440,410" fill="none" stroke="#7E7E7E" stroke-width="2" stroke-linecap="round" stroke-linejoin="round"/></g></g><g id="V0Vt07Vcdfq"><g transform="translate(1560 330)"><ellipse cx="64.99999999999999" cy="20.000000000000057" rx="64.99999999999999" ry="20.000000000000057" fill="rgb(166,179,178)" stroke="#a6b3b2" stroke-width="2" stroke-linecap="round" stroke-linejoin="round" stroke-dasharray="0 0"/></g><g transform="translate(1565.5, 340.00000000000006) rotate(0, 59.5, 10)" width="119" height="20"><text text-decoration="none" x="0.5" fill="rgb(255, 255, 255)" font-weight="bold" font-size="10pt" font-family="lt_regular"  y="15">VehicleNumberPlate</text><text text-decoration="none" x="118.5" fill="#4b4b4b" font-size="10pt" font-family="noto_regular"  y="15"></text></g></g><g id="vgScGN3cPS7"><g transform="translate(1340 250)"><ellipse cx="64.99999999999999" cy="20.000000000000057" rx="64.99999999999999" ry="20.000000000000057" fill="rgb(166,179,178)" stroke="#a6b3b2" stroke-width="2" stroke-linecap="round" stroke-linejoin="round" stroke-dasharray="0 0"/></g><g transform="translate(1372, 260.00000000000006) rotate(0, 33, 10)" width="66" height="20"><text text-decoration="none" x="0.5" fill="rgb(255, 255, 255)" font-weight="bold" font-size="10pt" font-family="lt_regular"  y="15">DboyName</text><text text-decoration="none" x="65.5" fill="#4b4b4b" font-size="10pt" font-family="noto_regular"  y="15"></text></g></g><g id="byqSSuZ4Ap9"><g transform="translate(1510 250)"><ellipse cx="64.99999999999999" cy="20.000000000000057" rx="64.99999999999999" ry="20.000000000000057" fill="rgb(166,179,178)" stroke="#a6b3b2" stroke-width="2" stroke-linecap="round" stroke-linejoin="round" stroke-dasharray="0 0"/></g><g transform="translate(1532.5, 260.00000000000006) rotate(0, 42.5, 10)" width="85" height="20"><text text-decoration="none" x="1" fill="rgb(255, 255, 255)" font-weight="bold" font-size="10pt" font-family="lt_regular"  y="15">PhoneNumber</text><text text-decoration="none" x="84" fill="#4b4b4b" font-size="10pt" font-family="noto_regular"  y="15"></text></g></g><g id="1n30xJGmca1"><g transform="translate(1310.0000000000002 330.00000000000006)"><ellipse cx="64.99999999999999" cy="20.000000000000057" rx="64.99999999999999" ry="20.000000000000057" fill="rgb(166,179,178)" stroke="#a6b3b2" stroke-width="2" stroke-linecap="round" stroke-linejoin="round" stroke-dasharray="0 0"/></g><g transform="translate(1352.0000000000002, 340.0000000000001) rotate(0, 23, 10)" width="46" height="20"><text text-decoration="none" x="0.5" fill="rgb(255, 255, 255)" font-weight="bold" font-size="10pt" font-family="lt_regular"  y="15">DboyID</text><text text-decoration="none" x="45.5" fill="#4b4b4b" font-size="10pt" font-family="noto_regular"  y="15"></text></g></g><g id="34PeY7pm101"><g transform="translate(1260.0000000000002 170.00000000000006)"><ellipse cx="64.99999999999999" cy="20.000000000000057" rx="64.99999999999999" ry="20.000000000000057" fill="rgb(233,228,232)" stroke="#e9e4e8" stroke-width="2" stroke-linecap="round" stroke-linejoin="round" stroke-dasharray="0 0"/></g><g transform="translate(1279.0000000000002, 180.0000000000001) rotate(0, 46, 10)" width="92" height="20"><text text-decoration="none" x="0.5" fill="rgb(0, 0, 0)" font-size="10pt" font-family="lt_regular"  y="15">DboyFirstName</text><text text-decoration="none" x="91.5" fill="#4b4b4b" font-size="10pt" font-family="noto_regular"  y="15"></text></g></g><g id="c0rAbZEdmZg"><g transform="translate(1430 170.00000000000006)"><ellipse cx="64.99999999999999" cy="20.000000000000057" rx="64.99999999999999" ry="20.000000000000057" fill="rgb(233,228,232)" stroke="#e9e4e8" stroke-width="2" stroke-linecap="round" stroke-linejoin="round" stroke-dasharray="0 0"/></g><g transform="translate(1450, 180.0000000000001) rotate(0, 45, 10)" width="90" height="20"><text text-decoration="none" x="0.5" fill="rgb(0, 0, 0)" font-size="10pt" font-family="lt_regular"  y="15">DboyLastName</text><text text-decoration="none" x="89.5" fill="#4b4b4b" font-size="10pt" font-family="noto_regular"  y="15"></text></g></g><g id="nlrrTuMHyBs"><g><path d="M 815,350 L 815.0000000000002,400 Q 815.0000000000002,410 825.0000000000002,410 L 890,410" fill="none" stroke="#7E7E7E" stroke-width="2" stroke-linecap="round" stroke-linejoin="round"/></g></g><g id="1UrQZyuUgcK"><g><path d="M 720,380 L 795,380.00000000000017 Q 805,380.00000000000017 805,390.00000000000017 L 805,395 L 805,400 Q 805,410 811.0000000000002,410 L 890,410" fill="none" stroke="#7E7E7E" stroke-width="2" stroke-linecap="round" stroke-linejoin="round"/></g></g><g id="c6asfmq1iRq"><g><path d="M 720,440 L 795.0000000000002,439.99999999999983 Q 805.0000000000002,439.99999999999983 805.0000000000001,429.99999999999983 L 805,425 L 805.0000000000001,420 Q 805.0000000000002,410 811.0000000000002,410 L 890,410" fill="none" stroke="#7E7E7E" stroke-width="2" stroke-linecap="round" stroke-linejoin="round"/></g></g><g id="no0K3vP2Y8Q"><g><path d="M 815,470 L 815.0000000000002,420 Q 815.0000000000002,410 825.0000000000002,410 L 890,410" fill="none" stroke="#7E7E7E" stroke-width="2" stroke-linecap="round" stroke-linejoin="round"/></g></g><g id="7V22laODywo"><g><path d="M 1440,350 L 1490,350.0000000000001 Q 1500,350.0000000000001 1500,360.0000000000001 L 1500,380" fill="none" stroke="#7E7E7E" stroke-width="2" stroke-linecap="round" stroke-linejoin="round"/></g></g><g id="E0zgRLLLA2L"><g><path d="M 1560,350 L 1510,350.00000000000006 Q 1500,350.00000000000006 1500,360.00000000000006 L 1500,380" fill="none" stroke="#7E7E7E" stroke-width="2" stroke-linecap="round" stroke-linejoin="round"/></g></g><g id="EO3Jvijkehr"><g><path d="M 1510,270 L 1510,270 Q 1500,270.00000000000006 1500,280.00000000000006 L 1500,380" fill="none" stroke="#7E7E7E" stroke-width="2" stroke-linecap="round" stroke-linejoin="round"/></g></g><g id="4umWwKxoOQ5"><g><path d="M 1470,270 L 1490,270.00000000000006 Q 1500,270.00000000000006 1500,280.00000000000006 L 1500,380" fill="none" stroke="#7E7E7E" stroke-width="2" stroke-linecap="round" stroke-linejoin="round"/></g></g><g id="5UMu808G5oY"><g><path d="M 1390,190 L 1395,190.00000000000003 Q 1405,190.0000000000001 1405,200.0000000000001 L 1405,250" fill="none" stroke="#7E7E7E" stroke-width="2" stroke-linecap="round" stroke-linejoin="round"/></g></g><g id="SJV8jSJvCTl"><g><path d="M 1430,190 L 1415,190.00000000000006 Q 1405,190.0000000000001 1405,200.0000000000001 L 1405,250" fill="none" stroke="#7E7E7E" stroke-width="2" stroke-linecap="round" stroke-linejoin="round"/></g></g><g id="hxQDgAZOhcQ"><g transform="translate(1450.0000000000002 540)"><path d="M 84.99999999999913,0 L 0,54.999999999999986 L 84.99999999999913,109.99999999999997 L 169.99999999999827,54.999999999999986 L 84.99999999999913,0 Z" fill="rgb(39,59,79)" stroke="#273b4f" stroke-width="2" stroke-linecap="round" stroke-linejoin="round" stroke-dasharray="0 0"/></g><g transform="translate(1467.4999999999993, 562) rotate(0, 67.5, 33)" width="135" height="66"><text text-decoration="none" x="75.5" fill="rgb(255, 255, 255)" font-weight="bold" font-size="12pt" font-family="lt_regular"  y="17"></text><text text-decoration="none" x="0" fill="rgb(255, 255, 255)" font-weight="bold" font-size="12pt" font-family="lt_regular"  y="39">&#160;&#160;&#160;&#160;</text><text text-decoration="none" x="20" fill="rgb(255, 255, 255)" font-weight="bold" font-size="12pt" font-family="lt_regular"  y="39">DelBoy_Zipcode&#160;</text><text text-decoration="none" x="53" fill="rgb(255, 255, 255)" font-weight="bold" font-size="12pt" font-family="lt_regular"  y="61">Join</text><text text-decoration="none" x="82" fill="#4b4b4b" font-size="10pt" font-family="noto_regular"  y="61"></text></g></g><g id="FvtKWpuhEwj"><g><path d="M 1500,440 L 1500,480 Q 1500,490 1510,490 L 1517,490 L 1524.9999999999993,490 Q 1534.9999999999993,490 1534.9999999999995,500 L 1535,540" fill="none" stroke="#7E7E7E" stroke-width="2" stroke-linecap="round" stroke-linejoin="round"/></g></g><g id="xXcQ6hhWGGx"><g transform="translate(1220 540.0000000000001)"><ellipse cx="64.99999999999999" cy="20.000000000000057" rx="64.99999999999999" ry="20.000000000000057" fill="rgb(166,179,178)" stroke="#a6b3b2" stroke-width="2" stroke-linecap="round" stroke-linejoin="round" stroke-dasharray="0 0"/></g><g transform="translate(1262, 550.0000000000002) rotate(0, 23, 10)" width="46" height="20"><text text-decoration="none" x="0" fill="rgb(255, 255, 255)" font-weight="bold" font-size="10pt" font-family="lt_regular"  y="15">DBoyID</text><text text-decoration="none" x="46" fill="#4b4b4b" font-size="10pt" font-family="noto_regular"  y="15"></text></g></g><g id="mgdCazBLgWV"><g transform="translate(1220 600.0000000000002)"><ellipse cx="64.99999999999999" cy="20.000000000000057" rx="64.99999999999999" ry="20.000000000000057" fill="rgb(166,179,178)" stroke="#a6b3b2" stroke-width="2" stroke-linecap="round" stroke-linejoin="round" stroke-dasharray="0 0"/></g><g transform="translate(1261.5, 610.0000000000002) rotate(0, 23.5, 10)" width="47" height="20"><text text-decoration="none" x="1" fill="rgb(255, 255, 255)" font-weight="bold" font-size="10pt" font-family="lt_regular"  y="15">Zipcode</text><text text-decoration="none" x="46" fill="#4b4b4b" font-size="10pt" font-family="noto_regular"  y="15"></text></g></g><g id="bslewcO6CN3"><g><path d="M 1350,560 L 1390,560.0000000000002 Q 1400,560.0000000000002 1400,570.0000000000002 L 1400,578 L 1400,585 Q 1400,595 1410,595 L 1450,595" fill="none" stroke="#7E7E7E" stroke-width="2" stroke-linecap="round" stroke-linejoin="round"/></g></g><g id="hbAFkIkQi1x"><g><path d="M 1350,620 L 1390,620.0000000000002 Q 1400,620.0000000000002 1400,610.0000000000002 L 1400,608 L 1400,605 Q 1400,595 1410,595 L 1450,595" fill="none" stroke="#7E7E7E" stroke-width="2" stroke-linecap="round" stroke-linejoin="round"/></g></g><g id="5hkiERnSUhc"><g transform="translate(1440 780.0000000000001)"><rect x="0" y="0" width="119.99999999999997" height="59.999999999999986" fill="rgb(226,78,51)" stroke="#e24e33" stroke-width="2" stroke-linecap="round" stroke-linejoin="round" stroke-dasharray="0 0"/></g><g transform="translate(1472, 799.0000000000001) rotate(0, 28, 11)" width="56" height="22"><text text-decoration="none" x="0" fill="rgb(255, 255, 255)" font-weight="bold" font-size="12pt" font-family="lt_regular"  y="17">Zipcode</text><text text-decoration="none" x="57" fill="#4b4b4b" font-size="10pt" font-family="noto_regular"  y="17"></text></g></g><g id="SfXGCUHJRMK"><g><path d="M 1535,650 L 1534.9999999999993,705 Q 1534.9999999999993,715 1524.9999999999993,715 L 1517,715 L 1510,715 Q 1500,715 1500,725 L 1500,780" fill="none" stroke="#7E7E7E" stroke-width="2" stroke-linecap="round" stroke-linejoin="round"/></g></g><g id="0sdQNzbP9aw"><g transform="translate(1660.0000000000007 730)"><ellipse cx="64.99999999999999" cy="20.000000000000057" rx="64.99999999999999" ry="20.000000000000057" fill="rgb(166,179,178)" stroke="#a6b3b2" stroke-width="2" stroke-linecap="round" stroke-linejoin="round" stroke-dasharray="0 0"/></g><g transform="translate(1710.0000000000007, 740) rotate(0, 15, 10)" width="30" height="20"><text text-decoration="none" x="0" fill="rgb(255, 255, 255)" font-weight="bold" font-size="10pt" font-family="lt_regular"  y="15">State</text><text text-decoration="none" x="30" fill="#4b4b4b" font-size="10pt" font-family="noto_regular"  y="15"></text></g></g><g id="OcDxiWe3Cn6"><g transform="translate(1660.0000000000007 790)"><ellipse cx="64.99999999999999" cy="20.000000000000057" rx="64.99999999999999" ry="20.000000000000057" fill="rgb(166,179,178)" stroke="#a6b3b2" stroke-width="2" stroke-linecap="round" stroke-linejoin="round" stroke-dasharray="0 0"/></g><g transform="translate(1713.0000000000007, 800) rotate(0, 12, 10)" width="24" height="20"><text text-decoration="none" x="0" fill="rgb(255, 255, 255)" font-weight="bold" font-size="10pt" font-family="lt_regular"  y="15">City</text><text text-decoration="none" x="24" fill="#4b4b4b" font-size="10pt" font-family="noto_regular"  y="15"></text></g></g><g id="b1ueyBh9YBi"><g transform="translate(1660.0000000000002 849.9999999999999)"><ellipse cx="64.99999999999999" cy="20.000000000000057" rx="64.99999999999999" ry="20.000000000000057" fill="rgb(166,179,178)" stroke="#a6b3b2" stroke-width="2" stroke-linecap="round" stroke-linejoin="round" stroke-dasharray="0 0"/></g><g transform="translate(1701.5000000000002, 860) rotate(0, 23.5, 10)" width="47" height="20"><text text-decoration="none" x="1" fill="rgb(255, 255, 255)" font-weight="bold" font-size="10pt" font-family="lt_regular"  y="15">Ziocode</text><text text-decoration="none" x="46" fill="#4b4b4b" font-size="10pt" font-family="noto_regular"  y="15"></text></g></g><g id="j5iKe0eaKR6"><g><path d="M 1560,810 L 1600.0000000000005,810.0000000000001 Q 1610.0000000000005,810.0000000000001 1610.0000000000002,800.0000000000001 L 1610,780 L 1610.0000000000002,760 Q 1610.0000000000005,750 1620.0000000000005,750 L 1660,750" fill="none" stroke="#7E7E7E" stroke-width="2" stroke-linecap="round" stroke-linejoin="round"/></g></g><g id="LRZSC7y2Fso"><g><path d="M 1560,810 L 1600.0000000000005,810.0000000000001 Q 1600.000000000001,810.0000000000001 1610,810 Q 1620,810 1620.0000000000005,810 L 1660,810" fill="none" stroke="#7E7E7E" stroke-width="2" stroke-linecap="round" stroke-linejoin="round"/></g></g><g id="JeYffQfzrT1"><g><path d="M 1560,810 L 1600,810.0000000000001 Q 1610,810.0000000000001 1610,820.0000000000001 L 1610,840 L 1610,860 Q 1610,870 1620,870 L 1660,870" fill="none" stroke="#7E7E7E" stroke-width="2" stroke-linecap="round" stroke-linejoin="round"/></g></g><g id="Td4ZZueu5UE"><g transform="translate(780 620)"><path d="M 80.00000000000011,0 L 0,49.999999999999915 L 80.00000000000011,99.99999999999983 L 160.00000000000023,49.999999999999915 L 80.00000000000011,0 Z" fill="rgb(39,59,79)" stroke="#273b4f" stroke-width="2" stroke-linecap="round" stroke-linejoin="round" stroke-dasharray="0 0"/></g><g transform="translate(805.0000000000001, 658.9999999999999) rotate(0, 55, 11)" width="110" height="22"><text text-decoration="none" x="0" fill="rgb(255, 255, 255)" font-weight="bold" font-size="12pt" font-family="lt_regular"  y="17">OrderMenuJoin</text><text text-decoration="none" x="112" fill="#4b4b4b" font-size="10pt" font-family="noto_regular"  y="17"></text></g></g><g id="bjRg2hwUl4a"><g transform="translate(619.9999999999999 780.0000000000001)"><ellipse cx="64.99999999999999" cy="20.000000000000057" rx="64.99999999999999" ry="20.000000000000057" fill="rgb(166,179,178)" stroke="#a6b3b2" stroke-width="2" stroke-linecap="round" stroke-linejoin="round" stroke-dasharray="0 0"/></g><g transform="translate(643.9999999999999, 790.0000000000002) rotate(0, 41, 10)" width="82" height="20"><text text-decoration="none" x="0.5" fill="rgb(255, 255, 255)" font-weight="bold" font-size="10pt" font-family="lt_regular"  y="15">OrderMenuID</text><text text-decoration="none" x="81.5" fill="#4b4b4b" font-size="10pt" font-family="noto_regular"  y="15"></text></g></g><g id="Jfszl24htjF"><g transform="translate(570.0000000000001 880)"><ellipse cx="64.99999999999999" cy="20.000000000000057" rx="64.99999999999999" ry="20.000000000000057" fill="rgb(166,179,178)" stroke="#a6b3b2" stroke-width="2" stroke-linecap="round" stroke-linejoin="round" stroke-dasharray="0 0"/></g><g transform="translate(611.0000000000001, 890) rotate(0, 24, 10)" width="48" height="20"><text text-decoration="none" x="0" fill="rgb(255, 255, 255)" font-weight="bold" font-size="10pt" font-family="lt_regular"  y="15">OrderID</text><text text-decoration="none" x="48" fill="#4b4b4b" font-size="10pt" font-family="noto_regular"  y="15"></text></g></g><g id="CA02YwEWl9j"><g transform="translate(570.0000000000003 938.9999999999997)"><ellipse cx="64.99999999999999" cy="20.000000000000057" rx="64.99999999999999" ry="20.000000000000057" fill="rgb(166,179,178)" stroke="#a6b3b2" stroke-width="2" stroke-linecap="round" stroke-linejoin="round" stroke-dasharray="0 0"/></g><g transform="translate(615.0000000000003, 948.9999999999998) rotate(0, 20, 10)" width="40" height="20"><text text-decoration="none" x="0" fill="rgb(255, 255, 255)" font-weight="bold" font-size="10pt" font-family="lt_regular"  y="15">ItemID</text><text text-decoration="none" x="41" fill="#4b4b4b" font-size="10pt" font-family="noto_regular"  y="15"></text></g></g><g id="f0Lbg3xTtk6"><g transform="translate(879.9999999999999 909.9999999999999)"><ellipse cx="64.99999999999999" cy="20.000000000000057" rx="64.99999999999999" ry="20.000000000000057" fill="rgb(166,179,178)" stroke="#a6b3b2" stroke-width="2" stroke-linecap="round" stroke-linejoin="round" stroke-dasharray="0 0"/></g><g transform="translate(919.4999999999999, 920) rotate(0, 25.5, 10)" width="51" height="20"><text text-decoration="none" x="0.5" fill="rgb(255, 255, 255)" font-weight="bold" font-size="10pt" font-family="lt_regular"  y="15">Quantity</text><text text-decoration="none" x="50.5" fill="#4b4b4b" font-size="10pt" font-family="noto_regular"  y="15"></text></g></g><g id="epdksHDfrp3"><g><path d="M 685,820 L 684.9999999999999,830.0000000000002 Q 684.9999999999999,840.0000000000002 694.9999999999999,840.0000000000002 L 727,840 L 759.9999999999999,840.0000000000002 Q 769.9999999999999,840.0000000000002 769.9999999999999,830.0000000000002 L 770,790 L 769.9999999999999,749.9999999999998 Q 769.9999999999999,739.9999999999998 779.9999999999999,739.9999999999998 L 815,740 L 850.0000000000001,739.9999999999998 Q 860.0000000000001,739.9999999999998 860,729.9999999999998 L 860,720" fill="none" stroke="#7E7E7E" stroke-width="2" stroke-linecap="round" stroke-linejoin="round"/></g></g><g id="sVfpE4NIT7Y"><g><path d="M 700,900 L 850.0000000000001,900 Q 860.0000000000001,900 860.0000000000001,890 L 860,720" fill="none" stroke="#7E7E7E" stroke-width="2" stroke-linecap="round" stroke-linejoin="round"/></g></g><g id="emRThub510v"><g><path d="M 700,959 L 850.0000000000001,958.9999999999998 Q 860.0000000000001,958.9999999999998 860.0000000000001,948.9999999999998 L 860,720" fill="none" stroke="#7E7E7E" stroke-width="2" stroke-linecap="round" stroke-linejoin="round"/></g></g><g id="hVJMJSsF30H"><g><path d="M 945,910 L 944.9999999999999,824.9999999999998 Q 944.9999999999999,814.9999999999998 934.9999999999999,814.9999999999998 L 903,815 L 870.0000000000001,814.9999999999998 Q 860.0000000000001,814.9999999999998 860.0000000000001,804.9999999999998 L 860,720" fill="none" stroke="#7E7E7E" stroke-width="2" stroke-linecap="round" stroke-linejoin="round"/></g></g><g id="Xhh1dhJRBMh"><g transform="translate(1130.0000000000002 740.0000000000002)"><rect x="0" y="0" width="119.99999999999997" height="59.999999999999986" fill="rgb(226,78,51)" stroke="#e24e33" stroke-width="2" stroke-linecap="round" stroke-linejoin="round" stroke-dasharray="0 0"/></g><g transform="translate(1169.5000000000002, 759.0000000000002) rotate(0, 20.5, 11)" width="41" height="22"><text text-decoration="none" x="0" fill="rgb(255, 255, 255)" font-weight="bold" font-size="12pt" font-family="lt_regular"  y="17">Menu</text><text text-decoration="none" x="41" fill="#4b4b4b" font-size="10pt" font-family="noto_regular"  y="17"></text></g></g><g id="JspaxPIQfML"><g transform="translate(1240 850)"><ellipse cx="64.99999999999999" cy="20.000000000000053" rx="64.99999999999999" ry="20.000000000000053" fill="rgb(166,179,178)" stroke="#a6b3b2" stroke-width="2" stroke-linecap="round" stroke-linejoin="round" stroke-dasharray="0 0"/></g><g transform="translate(1285, 860) rotate(0, 20, 10)" width="40" height="20"><text text-decoration="none" x="0" fill="rgb(255, 255, 255)" font-weight="bold" font-size="10pt" font-family="lt_regular"  y="15">ItemID</text><text text-decoration="none" x="41" fill="#4b4b4b" font-size="10pt" font-family="noto_regular"  y="15"></text></g></g><g id="yvZ5kNy9hYy"><g transform="translate(1240.0000000000005 900)"><ellipse cx="64.99999999999999" cy="20.000000000000053" rx="64.99999999999999" ry="20.000000000000053" fill="rgb(166,179,178)" stroke="#a6b3b2" stroke-width="2" stroke-linecap="round" stroke-linejoin="round" stroke-dasharray="0 0"/></g><g transform="translate(1292.0000000000005, 910) rotate(0, 13, 10)" width="26" height="20"><text text-decoration="none" x="0" fill="rgb(255, 255, 255)" font-weight="bold" font-size="10pt" font-family="lt_regular"  y="15">Item</text><text text-decoration="none" x="27" fill="#4b4b4b" font-size="10pt" font-family="noto_regular"  y="15"></text></g></g><g id="3dGLoGay6xs"><g transform="translate(1240.0000000000002 949.9999999999999)"><ellipse cx="64.99999999999999" cy="20.000000000000053" rx="64.99999999999999" ry="20.000000000000053" fill="rgb(166,179,178)" stroke="#a6b3b2" stroke-width="2" stroke-linecap="round" stroke-linejoin="round" stroke-dasharray="0 0"/></g><g transform="translate(1271.5000000000002, 960) rotate(0, 33.5, 10)" width="67" height="20"><text text-decoration="none" x="0.5" fill="rgb(255, 255, 255)" font-weight="bold" font-size="10pt" font-family="lt_regular"  y="15">SellingPrice</text><text text-decoration="none" x="66.5" fill="#4b4b4b" font-size="10pt" font-family="noto_regular"  y="15"></text></g></g><g id="x0htiDCH1wt"><g transform="translate(1240.0000000000002 999.9999999999999)"><ellipse cx="64.99999999999999" cy="20.000000000000053" rx="64.99999999999999" ry="20.000000000000053" fill="rgb(166,179,178)" stroke="#a6b3b2" stroke-width="2" stroke-linecap="round" stroke-linejoin="round" stroke-dasharray="0 0"/></g><g transform="translate(1265.5000000000002, 1010) rotate(0, 39.5, 10)" width="79" height="20"><text text-decoration="none" x="0" fill="rgb(255, 255, 255)" font-weight="bold" font-size="10pt" font-family="lt_regular"  y="15">ItemCategory</text><text text-decoration="none" x="80" fill="#4b4b4b" font-size="10pt" font-family="noto_regular"  y="15"></text></g></g><g id="pkeo18NapPt"><g transform="translate(1240.0000000000002 1050)"><ellipse cx="64.99999999999999" cy="20.000000000000053" rx="64.99999999999999" ry="20.000000000000053" fill="rgb(166,179,178)" stroke="#a6b3b2" stroke-width="2" stroke-linecap="round" stroke-linejoin="round" stroke-dasharray="0 0"/></g><g transform="translate(1255.5000000000002, 1060) rotate(0, 49.5, 10)" width="99" height="20"><text text-decoration="none" x="0.5" fill="rgb(255, 255, 255)" font-weight="bold" font-size="10pt" font-family="lt_regular"  y="15">ItemSubcategory</text><text text-decoration="none" x="98.5" fill="#4b4b4b" font-size="10pt" font-family="noto_regular"  y="15"></text></g></g><g id="rdekKQZeXNv"><g transform="translate(910 760)"><ellipse cx="64.99999999999999" cy="20.000000000000053" rx="64.99999999999999" ry="20.000000000000053" fill="rgb(166,179,178)" stroke="#a6b3b2" stroke-width="2" stroke-linecap="round" stroke-linejoin="round" stroke-dasharray="0 0"/></g><g transform="translate(930, 770) rotate(0, 45, 10)" width="90" height="20"><text text-decoration="none" x="1" fill="rgb(255, 255, 255)" font-weight="bold" font-size="10pt" font-family="lt_regular"  y="15">Price&#160;</text><text text-decoration="none" x="33" fill="rgb(255, 255, 255)" font-weight="bold" font-size="10pt" font-family="lt_regular"  y="15">*Quantity</text><text text-decoration="none" x="89" fill="#4b4b4b" font-size="10pt" font-family="noto_regular"  y="15"></text></g></g><g id="mkCr8P78WIN"><g><path d="M 910,780 L 870.0000000000001,780 Q 860.0000000000001,780 860.0000000000001,770 L 860,720" fill="none" stroke="#7E7E7E" stroke-width="2" stroke-linecap="round" stroke-linejoin="round"/></g></g><g id="jc0sJscpeBa"><g><path d="M 940,670 L 1180.0000000000002,669.9999999999999 Q 1190.0000000000002,669.9999999999999 1190.0000000000002,679.9999999999999 L 1190,740" fill="none" stroke="#7E7E7E" stroke-width="2" stroke-linecap="round" stroke-linejoin="round"/><path d="M 1190,740 L 1195.75,731.304347826087 L 1184.25,731.304347826087 Z" fill="rgb(126,126,126)" stroke="#7E7E7E" stroke-width="2" stroke-linecap="round" stroke-linejoin="round"/></g></g><g id="EVNmWpCMeJe"><g><path d="M 950,440 L 949.9999999999999,520 Q 949.9999999999999,530 939.9999999999999,530 L 905,530 L 870.0000000000001,530 Q 860.0000000000001,530 860.0000000000001,540 L 860,620" fill="none" stroke="#7E7E7E" stroke-width="2" stroke-linecap="round" stroke-linejoin="round"/></g></g><g id="yx6P7bRauL1"><g><path d="M 1190,800 L 1190.0000000000002,860 Q 1190.0000000000002,870 1200.0000000000002,870 L 1240,870" fill="none" stroke="#7E7E7E" stroke-width="2" stroke-linecap="round" stroke-linejoin="round"/></g></g><g id="NgbMPqriTnh"><g><path d="M 1190,800 L 1190.0000000000002,910 Q 1190.0000000000002,920 1200.0000000000002,920 L 1240,920" fill="none" stroke="#7E7E7E" stroke-width="2" stroke-linecap="round" stroke-linejoin="round"/></g></g><g id="7Qc2NleGiBd"><g><path d="M 1190,800 L 1190.0000000000002,960 Q 1190.0000000000002,970 1200.0000000000002,970 L 1240,970" fill="none" stroke="#7E7E7E" stroke-width="2" stroke-linecap="round" stroke-linejoin="round"/></g></g><g id="v89DI7l1Ygx"><g><path d="M 1190,800 L 1190.0000000000002,1010 Q 1190.0000000000002,1020 1200.0000000000002,1020 L 1240,1020" fill="none" stroke="#7E7E7E" stroke-width="2" stroke-linecap="round" stroke-linejoin="round"/></g></g><g id="mi3shVdRW1L"><g><path d="M 1190,800 L 1190.0000000000002,1060 Q 1190.0000000000002,1070 1200.0000000000002,1070 L 1240,1070" fill="none" stroke="#7E7E7E" stroke-width="2" stroke-linecap="round" stroke-linejoin="round"/></g></g></svg>