<svg xmlns="http://www.w3.org/2000/svg" xmlns:svg="http://www.w3.org/2000/svg" xmlns:xlink="http://www.w3.org/1999/xlink" version="1.0" height="1179.9999999999998pt" width="1030.5pt" viewBox="305 116.99999999999997 1038.5 1185.9999999999998" ><defs><style type="text/css">
            @font-face {
                font-family: 'lt_regular';
                src: url('https://app.creately.com/diagram/assets/fonts/lato/lt-regular-webfont.woff2') format('woff2'),
                    url('https://app.creately.com/diagram/assets/fonts/lato/lt-regular-webfont.woff') format('woff');
                font-weight: normal;
                font-style: normal;
            }
            @font-face {
                font-family: 'noto_regular';
                src: url('https://app.creately.com/diagram/assets/fonts/noto/noto-regular.woff') format('woff'),
                     url('https://app.creately.com/diagram/assets/fonts/noto/noto-regular.woff2') format('woff2');
                font-weight: normal;
                font-style: normal;
            }
        p {
            margin: 0;
        }
        </style></defs><defs><style>
            span{ display: inline-block; }
        </style></defs><g id="da9bNozyRPf"><g transform="translate(310 130)"><rect x="0" y="0" width="99.99999999999997" height="99.99999999999997" fill="rgb(107,183,100)" stroke="#6bb764" stroke-width="2" stroke-linecap="round" stroke-linejoin="round" stroke-dasharray="0 0"/></g><g transform="translate(316, 167.5) rotate(0, 44, 12.5)" width="88" height="25"><text text-decoration="none" x="0" fill="rgb(0, 0, 0)" font-size="14pt" font-family="lt_regular"  y="20">Customers</text><text text-decoration="none" x="91" fill="#4b4b4b" font-size="10pt" font-family="noto_regular"  y="20"></text></g></g><g id="6s6eLyOrY6B"><g transform="translate(650.5 120)"><rect x="0" y="0" width="119.99999999999994" height="119.99999999999994" rx="10" ry="10" fill="rgb(35,169,225)" stroke="#23a9e1" stroke-width="2" stroke-linecap="round" stroke-linejoin="round" stroke-dasharray="0 0"/><path d="M 0 30 a 0,0 0 0 1 0,0 h 119.99999999999994 a 0,0 0 0 1 0,0 v 79.99999999999994 a 10,10 0 0 1 -10,10 h -99.99999999999994 a 10,10 0 0 1 -10,-10 z" fill="rgb(255,255,255)" stroke="#23a9e1" stroke-width="2" stroke-linecap="round" stroke-linejoin="round" stroke-dasharray="0 0" /></g><g transform="translate(698, 122.5) rotate(0, 12.5, 12.5)" width="25" height="25"><text text-decoration="none" x="0" fill="rgb(0, 0, 0)" font-size="14pt" font-family="lt_regular"  y="20">1.0</text><text text-decoration="none" x="26" fill="#4b4b4b" font-size="10pt" font-family="noto_regular"  y="20"></text></g><g transform="translate(676.5, 155) rotate(0, 34, 0)" width="68" height="75"><text text-decoration="none" x="3.5" fill="rgb(0, 0, 0)" font-size="14pt" font-family="lt_regular"  y="20">Central&#160;</text><text text-decoration="none" x="0" fill="rgb(0, 0, 0)" font-size="14pt" font-family="lt_regular"  y="46">ordering&#160;</text><text text-decoration="none" x="4.5" fill="rgb(0, 0, 0)" font-size="14pt" font-family="lt_regular"  y="72">system</text><text text-decoration="none" x="63.5" fill="#4b4b4b" font-size="10pt" font-family="noto_regular"  y="72"></text></g></g><g id="c9adHuxOxgf"><g transform="translate(940 329.9999999999999)"><rect x="0" y="0" width="119.99999999999997" height="119.99999999999997" rx="10" ry="10" fill="rgb(35,169,225)" stroke="#23a9e1" stroke-width="2" stroke-linecap="round" stroke-linejoin="round" stroke-dasharray="0 0"/><path d="M 0 30 a 0,0 0 0 1 0,0 h 119.99999999999997 a 0,0 0 0 1 0,0 v 79.99999999999997 a 10,10 0 0 1 -10,10 h -99.99999999999997 a 10,10 0 0 1 -10,-10 z" fill="rgb(255,255,255)" stroke="#23a9e1" stroke-width="2" stroke-linecap="round" stroke-linejoin="round" stroke-dasharray="0 0" /></g><g transform="translate(987, 331.9999999999999) rotate(0, 13, 13)" width="26" height="26"><text text-decoration="none" x="0" fill="rgb(0, 0, 0)" font-size="14pt" font-family="lt_regular"  y="20">3.0</text><text text-decoration="none" x="26" fill="#4b4b4b" font-size="10pt" font-family="noto_regular"  y="20"></text></g><g transform="translate(954, 364.9999999999999) rotate(0, 46, 0)" width="92" height="52"><text text-decoration="none" x="0" fill="rgb(0, 0, 0)" font-size="14pt" font-family="lt_regular"  y="20">Sales&#160;</text><text text-decoration="none" x="46" fill="rgb(0, 0, 0)" font-size="14pt" font-family="lt_regular"  y="20">order</text><text text-decoration="none" x="92" fill="rgb(0, 0, 0)" font-size="14pt" font-family="lt_regular"  y="20"></text><text text-decoration="none" x="1" fill="rgb(0, 0, 0)" font-size="14pt" font-family="lt_regular"  y="46">processing</text><text text-decoration="none" x="91" fill="#4b4b4b" font-size="10pt" font-family="noto_regular"  y="46"></text></g></g><g id="cpOOv3m3q3Z"><g transform="translate(1230.0000000000002 119.99999999999997)"><rect x="0" y="0" width="99.99999999999997" height="99.99999999999997" fill="rgb(107,183,100)" stroke="#6bb764" stroke-width="2" stroke-linecap="round" stroke-linejoin="round" stroke-dasharray="0 0"/></g><g transform="translate(1231.0000000000002, 143.99999999999994) rotate(0, 49, 26)" width="98" height="52"><text text-decoration="none" x="27" fill="rgb(0, 0, 0)" font-size="14pt" font-family="lt_regular"  y="20">Food&#160;</text><text text-decoration="none" x="0" fill="rgb(0, 0, 0)" font-size="14pt" font-family="lt_regular"  y="46">preparation</text><text text-decoration="none" x="98" fill="#4b4b4b" font-size="10pt" font-family="noto_regular"  y="46"></text></g></g><g id="90cDUmnnE9y"><g transform="translate(1220 319.9999999999999)"><rect x="0" y="0" width="119.99999999999991" height="180.0000000000001" rx="10" ry="10" fill="rgb(35,169,225)" stroke="#23a9e1" stroke-width="2" stroke-linecap="round" stroke-linejoin="round" stroke-dasharray="0 0"/><path d="M 0 30 a 0,0 0 0 1 0,0 h 119.99999999999991 a 0,0 0 0 1 0,0 v 140.0000000000001 a 10,10 0 0 1 -10,10 h -99.99999999999991 a 10,10 0 0 1 -10,-10 z" fill="rgb(255,255,255)" stroke="#23a9e1" stroke-width="2" stroke-linecap="round" stroke-linejoin="round" stroke-dasharray="0 0" /></g><g transform="translate(1267, 322.4999999999999) rotate(0, 13, 12.5)" width="26" height="25"><text text-decoration="none" x="0" fill="rgb(0, 0, 0)" font-size="14pt" font-family="lt_regular"  y="20">6.0</text><text text-decoration="none" x="26" fill="#4b4b4b" font-size="10pt" font-family="noto_regular"  y="20"></text></g><g transform="translate(1231.5, 354.9999999999999) rotate(0, 48.5, 0)" width="97" height="100"><text text-decoration="none" x="26.5" fill="rgb(0, 0, 0)" font-size="14pt" font-family="lt_regular"  y="20">Food&#160;</text><text text-decoration="none" x="6.5" fill="rgb(0, 0, 0)" font-size="14pt" font-family="lt_regular"  y="46">packaging</text><text text-decoration="none" x="90.5" fill="rgb(0, 0, 0)" font-size="14pt" font-family="lt_regular"  y="46"></text><text text-decoration="none" x="1" fill="rgb(0, 0, 0)" font-size="14pt" font-family="lt_regular"  y="72">and&#160;</text><text text-decoration="none" x="37" fill="rgb(0, 0, 0)" font-size="14pt" font-family="lt_regular"  y="72">receipt&#160;</text><text text-decoration="none" x="48.5" fill="rgb(0, 0, 0)" font-size="14pt" font-family="lt_regular"  y="98"></text><text text-decoration="none" x="3" fill="rgb(0, 0, 0)" font-size="14pt" font-family="lt_regular"  y="124">generation</text><text text-decoration="none" x="94" fill="#4b4b4b" font-size="10pt" font-family="noto_regular"  y="124"></text></g></g><g id="1O0G9fPOS89"><g transform="translate(650.5 920)"><rect x="0" y="0" width="120" height="120" rx="10" ry="10" fill="rgb(35,169,225)" stroke="#23a9e1" stroke-width="2" stroke-linecap="round" stroke-linejoin="round" stroke-dasharray="0 0"/><path d="M 0 30 a 0,0 0 0 1 0,0 h 120 a 0,0 0 0 1 0,0 v 80 a 10,10 0 0 1 -10,10 h -100 a 10,10 0 0 1 -10,-10 z" fill="rgb(255,255,255)" stroke="#23a9e1" stroke-width="2" stroke-linecap="round" stroke-linejoin="round" stroke-dasharray="0 0" /></g><g transform="translate(697.5, 922) rotate(0, 13, 13)" width="26" height="26"><text text-decoration="none" x="0" fill="rgb(0, 0, 0)" font-size="14pt" font-family="lt_regular"  y="20">4.0</text><text text-decoration="none" x="26" fill="#4b4b4b" font-size="10pt" font-family="noto_regular"  y="20"></text></g><g transform="translate(661.5, 955) rotate(0, 49, 0)" width="98" height="52"><text text-decoration="none" x="0" fill="rgb(0, 0, 0)" font-size="14pt" font-family="lt_regular"  y="20">Final&#160;</text><text text-decoration="none" x="45" fill="rgb(0, 0, 0)" font-size="14pt" font-family="lt_regular"  y="20">report&#160;</text><text text-decoration="none" x="0" fill="rgb(0, 0, 0)" font-size="14pt" font-family="lt_regular"  y="46">preparation</text><text text-decoration="none" x="98" fill="#4b4b4b" font-size="10pt" font-family="noto_regular"  y="46"></text></g></g><g id="Rq30SiSXhvm"><g transform="translate(470.00000000000006 719.9999999999997)"><rect x="0" y="0" width="40" height="40" fill="rgb(240,82,84)" stroke="#f05254" stroke-width="2" stroke-linecap="round" stroke-linejoin="round" stroke-dasharray="0 0"/><path d="M 209.99999999999986,0 L 40,0 L 40,40 L 209.99999999999986,40" fill="rgb(255,255,255)" stroke="#f05254" stroke-width="2" stroke-linecap="round" stroke-linejoin="round" stroke-dasharray="0 0"/></g><g transform="translate(515, 727.4999999999997) rotate(0, 0, 12.5)" width="141" height="25"><text text-decoration="none" x="0" fill="rgb(0, 0, 0)" font-size="14pt" font-family="lt_regular"  y="20">Information&#160;</text><text text-decoration="none" x="0" fill="rgb(0, 0, 0)" font-size="14pt" font-family="lt_regular"  y="46">store</text><text text-decoration="none" x="43" fill="#4b4b4b" font-size="10pt" font-family="noto_regular"  y="46"></text></g><g transform="translate(472.50000000000006, 727.4999999999997) rotate(0, 17.5, 12.5)" width="35" height="25"><text text-decoration="none" x="0" fill="rgb(0, 0, 0)" font-size="14pt" font-family="lt_regular"  y="20">DS1</text><text text-decoration="none" x="35" fill="#4b4b4b" font-size="10pt" font-family="noto_regular"  y="20"></text></g></g><g id="rDOxh8eiKCE"><g transform="translate(940 720)"><rect x="0" y="0" width="40" height="40" fill="rgb(240,82,84)" stroke="#f05254" stroke-width="2" stroke-linecap="round" stroke-linejoin="round" stroke-dasharray="0 0"/><path d="M 180.00000000000003,0 L 40,0 L 40,40 L 180.00000000000003,40" fill="rgb(255,255,255)" stroke="#f05254" stroke-width="2" stroke-linecap="round" stroke-linejoin="round" stroke-dasharray="0 0"/></g><g transform="translate(985, 727) rotate(0, 0, 13)" width="122" height="26"><text text-decoration="none" x="0" fill="rgb(0, 0, 0)" font-size="14pt" font-family="lt_regular"  y="20">Goods&#160;</text><text text-decoration="none" x="60" fill="rgb(0, 0, 0)" font-size="14pt" font-family="lt_regular"  y="20">storage</text><text text-decoration="none" x="122" fill="#4b4b4b" font-size="10pt" font-family="noto_regular"  y="20"></text></g><g transform="translate(942.5, 727) rotate(0, 17.5, 13)" width="35" height="26"><text text-decoration="none" x="0" fill="rgb(0, 0, 0)" font-size="14pt" font-family="lt_regular"  y="20">DS2</text><text text-decoration="none" x="35" fill="#4b4b4b" font-size="10pt" font-family="noto_regular"  y="20"></text></g></g><g id="EOmGEfEV18s"><g transform="translate(939.9999999999998 910)"><rect x="0" y="0" width="119.99999999999997" height="119.99999999999997" rx="10" ry="10" fill="rgb(35,169,225)" stroke="#23a9e1" stroke-width="2" stroke-linecap="round" stroke-linejoin="round" stroke-dasharray="0 0"/><path d="M 0 30 a 0,0 0 0 1 0,0 h 119.99999999999997 a 0,0 0 0 1 0,0 v 79.99999999999997 a 10,10 0 0 1 -10,10 h -99.99999999999997 a 10,10 0 0 1 -10,-10 z" fill="rgb(255,255,255)" stroke="#23a9e1" stroke-width="2" stroke-linecap="round" stroke-linejoin="round" stroke-dasharray="0 0" /></g><g transform="translate(986.9999999999998, 912) rotate(0, 13, 13)" width="26" height="26"><text text-decoration="none" x="0" fill="rgb(0, 0, 0)" font-size="14pt" font-family="lt_regular"  y="20">5.0</text><text text-decoration="none" x="26" fill="#4b4b4b" font-size="10pt" font-family="noto_regular"  y="20"></text></g><g transform="translate(945.4999999999998, 945) rotate(0, 54.5, 0)" width="109" height="78"><text text-decoration="none" x="9.5" fill="rgb(0, 0, 0)" font-size="14pt" font-family="lt_regular"  y="20">sold&#160;</text><text text-decoration="none" x="48.5" fill="rgb(0, 0, 0)" font-size="14pt" font-family="lt_regular"  y="20">goods&#160;</text><text text-decoration="none" x="14.5" fill="rgb(0, 0, 0)" font-size="14pt" font-family="lt_regular"  y="46">accounts&#160;</text><text text-decoration="none" x="94.5" fill="rgb(0, 0, 0)" font-size="14pt" font-family="lt_regular"  y="46"></text><text text-decoration="none" x="0" fill="rgb(0, 0, 0)" font-size="14pt" font-family="lt_regular"  y="72">management</text><text text-decoration="none" x="109" fill="#4b4b4b" font-size="10pt" font-family="noto_regular"  y="72"></text></g></g><g id="62yaLjdFDYD"><g transform="translate(645 1199.9999999999998)"><rect x="0" y="0" width="131" height="99.99999999999999" fill="rgb(107,183,100)" stroke="#6bb764" stroke-width="2" stroke-linecap="round" stroke-linejoin="round" stroke-dasharray="0 0"/></g><g transform="translate(655, 1236.9999999999998) rotate(0, 55.5, 13)" width="111" height="26"><text text-decoration="none" x="0" fill="rgb(0, 0, 0)" font-size="14pt" font-family="lt_regular"  y="20">Management</text><text text-decoration="none" x="111" fill="#4b4b4b" font-size="10pt" font-family="noto_regular"  y="20"></text></g></g><g id="wEGWtpfi6AY"><mask id="6d614" x="396" y="166" width="269" height="28" maskUnits="userSpaceOnUse"><rect x="396" y="166" width="269" height="28" fill="white" /><rect x="458.5" y="163.99999999999997" width="144" height="32" fill="black" /></mask><g mask="url(#6d614)"><path d="M 410,180 L 530,180 Q 540,179.99999999999997 540.25,179.99999999999997 L 651,180" fill="none" stroke="#7E7E7E" stroke-width="2" stroke-linecap="round" stroke-linejoin="round"/></g><g transform="translate(461.5, 166.99999999999997)" width="138" height="26"><text text-decoration="none" x="0" fill="#4b4b4b" font-size="14pt" font-family="lt_regular"  y="20">Payment&#160;</text><text text-decoration="none" x="79" fill="#4b4b4b" font-size="14pt" font-family="lt_regular"  y="20">receipt</text><text text-decoration="none" x="138" fill="#4b4b4b" font-size="10pt" font-family="noto_regular"  y="20"></text></g></g><g id="pyX27o6qO46"><mask id="20cfc" x="667" y="226" width="35" height="298" maskUnits="userSpaceOnUse"><rect x="667" y="226" width="35" height="298" fill="white" /><rect x="645.0000000000001" y="359" width="78" height="32" fill="black" /></mask><g mask="url(#20cfc)"><path d="M 681,240 L 680.5370367830134,365.0000685863999 Q 680.5240739089587,368.5000445811599 684,375 Q 687.5240739089587,381.4999554188399 687.5370367830134,384.9999314135999 L 688,510" fill="none" stroke="#656565" stroke-width="2" stroke-linecap="round" stroke-linejoin="round"/><path d="M 688,510 L 693.75,501.30434782608694 L 682.25,501.30434782608694 Z" fill="rgb(101,101,101)" stroke="#656565" stroke-width="2" stroke-linecap="round" stroke-linejoin="round"/></g><g transform="translate(648.0000000000001, 362)" width="72" height="26"><text text-decoration="none" x="0" fill="rgb(101, 101, 101)" font-size="14pt" font-family="lt_regular"  y="20">raw&#160;</text><text text-decoration="none" x="36" fill="rgb(101, 101, 101)" font-size="14pt" font-family="lt_regular"  y="20">data</text><text text-decoration="none" x="72" fill="#4b4b4b" font-size="10pt" font-family="noto_regular"  y="20"></text></g></g><g id="tmBXz9ORaJG"><mask id="6f217" x="522" y="571" width="142" height="163" maskUnits="userSpaceOnUse"><rect x="522" y="571" width="142" height="163" fill="white" /><rect x="438.6536464461931" y="579.3127206295103" width="194" height="32" fill="black" /></mask><g mask="url(#6f217)"><path d="M 650,585 L 535.625,585 L 536,720" fill="none" stroke="#656565" stroke-width="2" stroke-linecap="round" stroke-linejoin="round"/><path d="M 536,720 L 541.75,711.304347826087 L 530.25,711.304347826087 Z" fill="rgb(101,101,101)" stroke="#656565" stroke-width="2" stroke-linecap="round" stroke-linejoin="round"/></g><g transform="translate(441.6536464461931, 582.3127206295103)" width="188" height="26"><text text-decoration="none" x="0" fill="rgb(101, 101, 101)" font-size="14pt" font-family="lt_regular"  y="20">Customer&#160;</text><text text-decoration="none" x="88" fill="rgb(101, 101, 101)" font-size="14pt" font-family="lt_regular"  y="20">information</text><text text-decoration="none" x="188" fill="#4b4b4b" font-size="10pt" font-family="noto_regular"  y="20"></text></g></g><g id="NIC2KjUgS8N"><mask id="fa227" x="727" y="226" width="227" height="208" maskUnits="userSpaceOnUse"><rect x="727" y="226" width="227" height="208" fill="white" />undefined<rect x="818.9885840361055" y="403.99999999999994" width="96" height="32" fill="black" /></mask><g mask="url(#fa227)"><path d="M 741,240 L 740.5,419.9999999999999 L 940,420" fill="none" stroke="#656565" stroke-width="2" stroke-linecap="round" stroke-linejoin="round"/><path d="M 940,420 L 931.304347826087,414.25 L 931.304347826087,425.75 Z" fill="rgb(101,101,101)" stroke="#656565" stroke-width="2" stroke-linecap="round" stroke-linejoin="round"/></g>undefined<g transform="translate(821.9885840361055, 406.99999999999994)" width="90" height="26"><text text-decoration="none" x="0" fill="rgb(101, 101, 101)" font-size="14pt" font-family="lt_regular"  y="20">sales&#160;</text><text text-decoration="none" x="44" fill="rgb(101, 101, 101)" font-size="14pt" font-family="lt_regular"  y="20">order</text><text text-decoration="none" x="90" fill="#4b4b4b" font-size="10pt" font-family="noto_regular"  y="20"></text></g></g><g id="IX0m8XBSme5"><mask id="fa44b" x="982" y="436" width="32" height="298" maskUnits="userSpaceOnUse"><rect x="982" y="436" width="32" height="298" fill="white" /><rect x="943.1248842593585" y="569" width="110" height="32" fill="black" /></mask><g mask="url(#fa44b)"><path d="M 1000,450 L 1000,575 Q 1000,577 998,585 Q 996.2347222484186,593.2499858539459 996.2314815132347,594.9999828532677 L 996,720" fill="none" stroke="#656565" stroke-width="2" stroke-linecap="round" stroke-linejoin="round"/><path d="M 996,720 L 1001.75,711.304347826087 L 990.25,711.304347826087 Z" fill="rgb(101,101,101)" stroke="#656565" stroke-width="2" stroke-linecap="round" stroke-linejoin="round"/></g><g transform="translate(946.1248842593585, 572)" width="104" height="26"><text text-decoration="none" x="0" fill="rgb(101, 101, 101)" font-size="14pt" font-family="lt_regular"  y="20">detailed&#160;</text><text text-decoration="none" x="72" fill="rgb(101, 101, 101)" font-size="14pt" font-family="lt_regular"  y="20">bills</text><text text-decoration="none" x="104" fill="#4b4b4b" font-size="10pt" font-family="noto_regular"  y="20"></text></g></g><g id="V1SU8bjQY5y"><mask id="95915" x="986" y="156" width="258" height="188" maskUnits="userSpaceOnUse"><rect x="986" y="156" width="258" height="188" fill="white" /><rect x="964" y="153.99999999999994" width="142" height="32" fill="black" /></mask><g mask="url(#95915)"><path d="M 1000,330 L 1000,169.99999999999994 L 1230,170" fill="none" stroke="#7E7E7E" stroke-width="2" stroke-linecap="round" stroke-linejoin="round"/><path d="M 1230,170 L 1221.304347826087,164.25 L 1221.304347826087,175.75 Z" fill="rgb(126,126,126)" stroke="#7E7E7E" stroke-width="2" stroke-linecap="round" stroke-linejoin="round"/></g><g transform="translate(967, 156.99999999999994)" width="136" height="26"><text text-decoration="none" x="0" fill="#4b4b4b" font-size="14pt" font-family="lt_regular"  y="20">processed&#160;</text><text text-decoration="none" x="90" fill="#4b4b4b" font-size="14pt" font-family="lt_regular"  y="20">order</text><text text-decoration="none" x="136" fill="#4b4b4b" font-size="10pt" font-family="noto_regular"  y="20"></text></g></g><g id="RZuM6zAJyEB"><mask id="62fe0" x="1266" y="206" width="28" height="128" maskUnits="userSpaceOnUse"><rect x="1266" y="206" width="28" height="128" fill="white" /><rect x="1216.5" y="253.99999999999994" width="127" height="32" fill="black" /></mask><g mask="url(#62fe0)"><path d="M 1280,220 L 1280.0000000000002,259.9999999999999 Q 1280.0000000000002,260.0000000000001 1280,270 Q 1280,279.9999999999998 1280,279.9999999999999 L 1280,320" fill="none" stroke="#7E7E7E" stroke-width="2" stroke-linecap="round" stroke-linejoin="round"/><path d="M 1280,320 L 1285.75,311.30434782608694 L 1274.25,311.30434782608694 Z" fill="rgb(126,126,126)" stroke="#7E7E7E" stroke-width="2" stroke-linecap="round" stroke-linejoin="round"/></g><g transform="translate(1219.5, 256.99999999999994)" width="121" height="26"><text text-decoration="none" x="0" fill="#4b4b4b" font-size="14pt" font-family="lt_regular"  y="20">Prepared&#160;</text><text text-decoration="none" x="81" fill="#4b4b4b" font-size="14pt" font-family="lt_regular"  y="20">food</text><text text-decoration="none" x="121" fill="#4b4b4b" font-size="10pt" font-family="noto_regular"  y="20"></text></g></g><g id="3uQ40AyzqAD"><mask id="e7811" x="982" y="746" width="32" height="178" maskUnits="userSpaceOnUse"><rect x="982" y="746" width="32" height="178" fill="white" /><rect x="910.6247916672453" y="819" width="175" height="32" fill="black" /></mask><g mask="url(#e7811)"><path d="M 996,760 L 996.2166668518503,825.0000555550926 Q 996.2225001527764,826.7500458329514 998,835 Q 999.9999999999998,843.0000000000002 999.9999999999998,845 L 1000,910" fill="none" stroke="#656565" stroke-width="2" stroke-linecap="round" stroke-linejoin="round"/><path d="M 1000,910 L 1005.75,901.304347826087 L 994.25,901.304347826087 Z" fill="rgb(101,101,101)" stroke="#656565" stroke-width="2" stroke-linecap="round" stroke-linejoin="round"/></g><g transform="translate(913.6247916672453, 822)" width="169" height="26"><text text-decoration="none" x="0" fill="rgb(101, 101, 101)" font-size="14pt" font-family="lt_regular"  y="20">Storage&#160;</text><text text-decoration="none" x="69" fill="rgb(101, 101, 101)" font-size="14pt" font-family="lt_regular"  y="20">information</text><text text-decoration="none" x="169" fill="#4b4b4b" font-size="10pt" font-family="noto_regular"  y="20"></text></g></g><g id="uLj4EnZMVjt"><mask id="d886c" x="757" y="956" width="197" height="38" maskUnits="userSpaceOnUse"><rect x="757" y="956" width="197" height="38" fill="white" /><rect x="802.0124844042359" y="945.7503119152805" width="106" height="58" fill="black" /></mask><g mask="url(#d886c)"><path d="M 940,970 L 855.2499999999999,970 L 855,975 L 855.2499999999999,980 L 771,980" fill="none" stroke="#656565" stroke-width="2" stroke-linecap="round" stroke-linejoin="round"/><path d="M 771,980 L 779.695652173913,985.75 L 779.695652173913,974.25 Z" fill="rgb(101,101,101)" stroke="#656565" stroke-width="2" stroke-linecap="round" stroke-linejoin="round"/></g><g transform="translate(805.0124844042359, 948.7503119152805)" width="100" height="52"><text text-decoration="none" x="28" fill="rgb(101, 101, 101)" font-size="14pt" font-family="lt_regular"  y="20">sales&#160;</text><text text-decoration="none" x="72" fill="rgb(101, 101, 101)" font-size="14pt" font-family="lt_regular"  y="20"></text><text text-decoration="none" x="0" fill="rgb(101, 101, 101)" font-size="14pt" font-family="lt_regular"  y="46">information</text><text text-decoration="none" x="100" fill="#4b4b4b" font-size="10pt" font-family="noto_regular"  y="46"></text></g></g><g id="XMG5cA6BbdY"><mask id="5cbe0" x="697" y="1026" width="28" height="188" maskUnits="userSpaceOnUse"><rect x="697" y="1026" width="28" height="188" fill="white" /><rect x="661.5" y="1096.3844666637895" width="99" height="32" fill="black" /></mask><g mask="url(#5cbe0)"><path d="M 711,1040 L 711,1200" fill="none" stroke="#7E7E7E" stroke-width="2" stroke-linecap="round" stroke-linejoin="round"/><path d="M 711,1200 L 716.75,1191.304347826087 L 705.25,1191.304347826087 Z" fill="rgb(126,126,126)" stroke="#7E7E7E" stroke-width="2" stroke-linecap="round" stroke-linejoin="round"/></g><g transform="translate(664.5, 1099.3844666637895)" width="93" height="26"><text text-decoration="none" x="0" fill="#4b4b4b" font-size="14pt" font-family="lt_regular"  y="20">final&#160;</text><text text-decoration="none" x="40" fill="#4b4b4b" font-size="14pt" font-family="lt_regular"  y="20">report</text><text text-decoration="none" x="93" fill="#4b4b4b" font-size="10pt" font-family="noto_regular"  y="20"></text></g></g><g id="bFQBY6kcu48"><mask id="95ffe" x="522" y="746" width="143" height="248" maskUnits="userSpaceOnUse"><rect x="522" y="746" width="143" height="248" fill="white" /><rect x="438.71416917693966" y="911.6874161953822" width="194" height="32" fill="black" /></mask><g mask="url(#95ffe)"><path d="M 536,760 L 535.625,980 L 651,980" fill="none" stroke="#656565" stroke-width="2" stroke-linecap="round" stroke-linejoin="round"/><path d="M 651,980 L 642.304347826087,974.25 L 642.304347826087,985.75 Z" fill="rgb(101,101,101)" stroke="#656565" stroke-width="2" stroke-linecap="round" stroke-linejoin="round"/></g><g transform="translate(441.71416917693966, 914.6874161953822)" width="188" height="26"><text text-decoration="none" x="0" fill="rgb(101, 101, 101)" font-size="14pt" font-family="lt_regular"  y="20">Customer&#160;</text><text text-decoration="none" x="88" fill="rgb(101, 101, 101)" font-size="14pt" font-family="lt_regular"  y="20">information</text><text text-decoration="none" x="188" fill="#4b4b4b" font-size="10pt" font-family="noto_regular"  y="20"></text></g></g><g id="k3cgPK8TWJo"><g transform="translate(650 509.9999999999999)"><rect x="0" y="0" width="149.99999999999994" height="150.0000000000002" rx="10" ry="10" fill="rgb(35,169,225)" stroke="#23a9e1" stroke-width="2" stroke-linecap="round" stroke-linejoin="round" stroke-dasharray="0 0"/><path d="M 0 30 a 0,0 0 0 1 0,0 h 149.99999999999994 a 0,0 0 0 1 0,0 v 110.0000000000002 a 10,10 0 0 1 -10,10 h -129.99999999999994 a 10,10 0 0 1 -10,-10 z" fill="rgb(255,255,255)" stroke="#23a9e1" stroke-width="2" stroke-linecap="round" stroke-linejoin="round" stroke-dasharray="0 0" /></g><g transform="translate(715, 515.4999999999999) rotate(0, 10, 9.5)" width="20" height="19"><text text-decoration="none" x="0.5" fill="rgb(0, 0, 0)" font-size="10pt" font-family="lt_regular"  y="15">2.0</text><text text-decoration="none" x="19.5" fill="#4b4b4b" font-size="10pt" font-family="noto_regular"  y="15"></text></g><g transform="translate(673.5, 544.9999999999999) rotate(0, 51.5, 0)" width="103" height="100"><text text-decoration="none" x="6" fill="rgb(0, 0, 0)" font-size="14pt" font-family="lt_regular"  y="20">Customers&#160;</text><text text-decoration="none" x="1.5" fill="rgb(0, 0, 0)" font-size="14pt" font-family="lt_regular"  y="46">information</text><text text-decoration="none" x="101.5" fill="rgb(0, 0, 0)" font-size="14pt" font-family="lt_regular"  y="46"></text><text text-decoration="none" x="0" fill="rgb(0, 0, 0)" font-size="14pt" font-family="lt_regular"  y="72">and&#160;</text><text text-decoration="none" x="36" fill="rgb(0, 0, 0)" font-size="14pt" font-family="lt_regular"  y="72">delivery&#160;</text><text text-decoration="none" x="18.5" fill="rgb(0, 0, 0)" font-size="14pt" font-family="lt_regular"  y="98">support</text><text text-decoration="none" x="84.5" fill="#4b4b4b" font-size="10pt" font-family="noto_regular"  y="98"></text></g></g></svg>